<?xml version="1.0" encoding="utf-8"?>
<!-- Generator: Adobe Illustrator 16.0.0, SVG Export Plug-In . SVG Version: 6.00 Build 0)  -->
<!DOCTYPE svg PUBLIC "-//W3C//DTD SVG 1.1//EN" "http://www.w3.org/Graphics/SVG/1.1/DTD/svg11.dtd">
<svg version="1.1" xmlns="http://www.w3.org/2000/svg" xmlns:xlink="http://www.w3.org/1999/xlink" x="0px" y="0px"
	 width="1972.937px" height="577.546px" viewBox="0 0 1972.937 577.546" enable-background="new 0 0 1972.937 577.546"
	 xml:space="preserve">
<g id="Layer_1" display="none">
	<polygon display="inline" fill="#92A2AD" points="0,0 800,95.916 800,536.552 744.742,562.149 0,469.941 	"/>
	<polygon display="inline" fill="#858585" points="800,75.109 289.667,29.885 800,11.552 	"/>
	<polygon display="inline" fill="#858585" points="755.235,557.288 800,577.546 800,536.552 	"/>
	<polygon display="inline" fill="#858585" points="511.473,533.518 0,547.052 0,505.552 392.543,518.12 	"/>
	<polygon display="inline" fill="#92A2AD" points="1600,0 800,95.916 800,536.552 855.258,562.149 1600,469.941 	"/>
	<polygon display="inline" fill="#858585" points="800,75.109 1310.334,29.885 800,11.552 	"/>
	<polygon display="inline" fill="#858585" points="844.765,557.288 800,577.546 800,536.552 	"/>
	<polygon display="inline" fill="#858585" points="1088.527,533.518 1600,547.052 1600,505.552 1207.457,518.12 	"/>
</g>
<g id="Layer_1_copy">
	<polygon fill="#858585" points="631.923,532.518 0,547.052 0,505.552 485.272,517.12 	"/>
	<polygon fill="#858585" points="986.468,535.219 931.27,556.629 986.468,577.546 1041.667,556.629 	"/>
	<polygon fill="#858585" points="986.468,6.552 357.184,29.885 986.468,75.109 1615.754,29.885 	"/>
	<polygon fill="#858585" points="1341.045,532.518 1973,547.052 1973,505.552 1487.712,517.12 	"/>
	<polygon fill="#92A2AD" points="986.468,95.916 0,0 0,469.941 918.33,562.149 986.468,536.552 1054.605,562.149 1972.937,469.941 
		1972.937,0 	"/>
</g>
</svg>
