<?xml version="1.0" encoding="utf-8"?>
<!-- Generator: Adobe Illustrator 16.0.0, SVG Export Plug-In . SVG Version: 6.00 Build 0)  -->
<!DOCTYPE svg PUBLIC "-//W3C//DTD SVG 1.1//EN" "http://www.w3.org/Graphics/SVG/1.1/DTD/svg11.dtd">
<svg version="1.1" id="Layer_1" xmlns="http://www.w3.org/2000/svg" xmlns:xlink="http://www.w3.org/1999/xlink" x="0px" y="0px"
	 width="70.644px" height="72.351px" viewBox="2.689 3.302 70.644 72.351" enable-background="new 2.689 3.302 70.644 72.351"
	 xml:space="preserve">
<polygon fill="none" points="40.714,23.098 40.473,23.673 40.473,23.673 "/>
<circle fill="none" cx="61.429" cy="13.33" r="1.842"/>
<path fill="none" d="M55.332,12.041c-0.591-0.094-1.146,0.309-1.24,0.9c-0.009,0.056-0.882,5.297-4.477,7.195
	c-0.905-1.077-2.729-3.844-1.625-7.672c0.166-0.575-0.166-1.175-0.741-1.341c-0.575-0.166-1.176,0.166-1.341,0.741
	c-1.802,6.253,2.542,10.219,2.728,10.385c0.074,0.065,0.154,0.119,0.24,0.162c0.267,0.132,0.581,0.151,0.866,0.042
	c2.222-0.845,4.052-2.714,5.292-5.404c0.907-1.969,1.188-3.696,1.2-3.769C56.326,12.689,55.922,12.134,55.332,12.041z"/>
<path fill="#92A2AD" d="M39.673,25.579l0.8-1.906l-2.818-0.861c0.143,0.193,0.28,0.379,0.412,0.558
	C39.148,24.833,38.911,24.54,39.673,25.579z"/>
<polygon fill="#DDC7CB" points="40.473,23.673 39.674,25.579 39.655,25.625 39.619,25.71 39.1,26.947 37.929,26.947 60.439,33.825 
	60.439,29.773 "/>
<path fill="#92A2AD" d="M65.854,11.916l-2.758-3.65c-2.074-2.744-5.314-4.357-8.755-4.357c-2.217,0-4.28,0.885-5.815,2.364
	c-2.836,0.823-7.125,1.814-9.462,1.102c-2.284-0.696,0.727,3.622,5.604,6.292l-3.827,9.126C36.938,17.549,26.927,4.369,26.927,4.369
	l-2.973,0.017c0,0,9.321,12.501,13.701,18.426l2.818,0.861l19.966,6.1v-0.094v-4.173l5.18-1c2.629,0,3.833-1.501,5.564-3.479
	c1.194-1.366,2.15-3.267,2.15-5.854L65.854,11.916z M61.429,15.172c-1.016,0-1.842-0.826-1.842-1.843
	c0-1.016,0.827-1.842,1.842-1.842c1.016,0,1.843,0.826,1.843,1.842C63.272,14.346,62.445,15.172,61.429,15.172z"/>
<path fill="#92A2AD" d="M18.859,70.421c0.599,2.27,3.255,3.981,6.444,3.981c3.472,0,6.308-2.03,6.548-4.6l0.019-0.424
	c-0.045-2.367-2.292-4.333-5.269-4.782v-7.644c0,0,1.832-0.526,6.101-3.799c0.006-0.004,0.013-0.009,0.019-0.015
	c0.184-0.142,0.367-0.286,0.549-0.435c0.009-0.007,0.018-0.015,0.027-0.022c0.186-0.152,0.371-0.307,0.553-0.466l0-0.001
	c0.184-0.161,0.366-0.324,0.544-0.492c0.007-0.006,0.014-0.012,0.02-0.018c0.171-0.16,0.339-0.323,0.504-0.489
	c0.014-0.014,0.027-0.028,0.041-0.042c0.161-0.163,0.32-0.329,0.476-0.499c0.011-0.012,0.022-0.024,0.034-0.036
	c0.164-0.18,0.326-0.363,0.482-0.549h7.362v0.031v19.133l-0.031,1.873c0.29,2.533,3.106,4.522,6.543,4.522
	c2.492,0,4.659-1.045,5.773-2.585c1.008,0.474,2.195,0.752,3.47,0.752c3.629,0,6.572-2.217,6.572-4.952
	c0-2.734-2.942-4.951-6.572-4.951c-0.454,0-0.897,0.035-1.326,0.101V51.613v-3.9c1.667-1.675,2.697-3.983,2.697-6.532v-6.384v-0.972
	l-22.511-6.878H23.323c-2.66,0-5.133,0.801-7.191,2.17l-0.544,0.574c-7.317-4.721-4.071-26.39-4.071-26.39
	c-4.529,1.944-6.593,8.161-6.593,8.161L4.394,9.104C0.978,15.408,3.85,22.049,3.85,22.049l-1.129-1.107
	c-0.419,5.629,3.502,8.709,3.502,8.709l-1.636-0.866c1.594,3.57,4.82,4.741,7.25,5.1c-1.044,1.985-1.583,4.268-1.433,6.679
	c0.008,0.132,0.018,0.265,0.029,0.399c0.341,4.176-2.321,9.295-4.526,12.356c-1.33,1.847-2.057,4.059-2.057,6.334v10.829
	c-0.004,0.073-0.015,0.145-0.015,0.219s0.01,0.146,0.015,0.219v0.216l0.015,0c0.292,2.531,3.107,4.518,6.542,4.518
	c3.629,0,6.572-2.217,6.572-4.952c0-0.064-0.323-1.556-0.854-2.295s-0.532-0.739-0.532-0.739c-0.946-0.917-2.306-1.579-3.873-1.818
	v-5.882c0,0,3.397-1.073,7.011-3.347v10.338l-0.013,0.003L18.859,70.421z M52.496,65.653h-2.338V50.043h2.338V65.653z"/>
</svg>
