<?xml version="1.0" encoding="utf-8"?>
<!-- Generator: Adobe Illustrator 16.0.0, SVG Export Plug-In . SVG Version: 6.00 Build 0)  -->
<!DOCTYPE svg PUBLIC "-//W3C//DTD SVG 1.1//EN" "http://www.w3.org/Graphics/SVG/1.1/DTD/svg11.dtd">
<svg version="1.1" xmlns="http://www.w3.org/2000/svg" xmlns:xlink="http://www.w3.org/1999/xlink" x="0px" y="0px"
	 width="1849.003px" height="422.034px" viewBox="0 0 1849.003 422.034" enable-background="new 0 0 1849.003 422.034"
	 xml:space="preserve">
<g id="Layer_1" display="none">
	
		<text transform="matrix(1 0 0 1 49.8618 413.4805)" display="inline" fill="#FFFFFF" font-family="'Montserrat-ExtraBold'" font-size="587.0945">SERV</text>
</g>
<g id="Layer_1_copy">
	<g opacity="0.1">
		<path fill="#FFFFFF" d="M338.375,62.356l-62.47,129.806c-58.413-33.263-141.164-63.28-189.03-63.28
			c-28.395,0-47.055,9.735-47.055,30.829c0,83.563,296.932,34.075,296.932,239.331c0,120.883-107.09,178.483-234.462,178.483
			c-96.543,0-202.012-34.074-273.404-90.053l63.28-128.184c58.413,49.488,153.334,86.809,211.747,86.809
			c35.696,0,58.413-12.17,58.413-38.131c0-85.997-296.933-31.641-296.933-232.029c0-109.524,93.299-179.295,235.274-179.295
			C187.474-3.358,276.716,22.603,338.375,62.356z"/>
		<path fill="#FFFFFF" d="M567.155,133.75v89.242h268.537v129.807H567.155v90.053h304.234v129.807H398.407V3.943h464.869V133.75
			H567.155z"/>
		<path fill="#FFFFFF" d="M1210.504,419.324h-89.242v153.333H952.514V3.943h265.291c152.523,0,240.143,73.016,240.143,202.011
			c0,84.375-34.074,146.032-95.732,180.918l115.203,185.785h-191.465L1210.504,419.324z M1217.805,289.518
			c50.301,0,79.508-27.585,79.508-78.695c0-49.489-29.207-77.073-79.508-77.073h-96.543v155.768H1217.805z"/>
		<path fill="#FFFFFF" d="M1702.949,572.657L1485.522,3.943h180.106l129.807,393.475L1925.242,3.943h172.805l-219.859,568.714
			H1702.949z"/>
	</g>
</g>
</svg>
