<?xml version="1.0" encoding="utf-8"?>
<!-- Generator: Adobe Illustrator 16.0.0, SVG Export Plug-In . SVG Version: 6.00 Build 0)  -->
<!DOCTYPE svg PUBLIC "-//W3C//DTD SVG 1.1//EN" "http://www.w3.org/Graphics/SVG/1.1/DTD/svg11.dtd">
<svg version="1.1" id="Capa_1_copy_3" xmlns="http://www.w3.org/2000/svg" xmlns:xlink="http://www.w3.org/1999/xlink" x="0px"
	 y="0px" width="182.567px" height="42.284px" viewBox="0 0 182.567 42.284" enable-background="new 0 0 182.567 42.284"
	 xml:space="preserve">
<g>
	<path fill="#FDFFFF" d="M51.792,29.81c-0.703,0.476-1.463,0.741-2.261,0.76c-1.463,0-2.546-0.874-2.546-2.85v-5.719h-1.444v-1.197
		h1.444v-2.641h1.463v2.641l3.173-0.019v1.216h-3.173v5.453c0,1.216,0.475,1.672,1.33,1.672c0.513,0,1.045-0.171,1.596-0.513
		L51.792,29.81z"/>
	<path fill="#FDFFFF" d="M63.307,24.319v6.176h-1.482v-5.777c0-1.767-1.064-2.812-2.831-2.812c-2.128,0.019-3.382,1.52-3.382,3.667
		v4.921h-1.482V16.396h1.482v6.328c0.684-1.558,2.052-2.28,3.895-2.299C61.9,20.424,63.307,21.906,63.307,24.319z"/>
	<path fill="#FDFFFF" d="M75.24,26.068h-8.171c0.266,1.957,1.691,3.192,3.63,3.192c1.235,0,2.318-0.437,3.097-1.254l0.817,0.874
		c-0.95,1.064-2.356,1.672-4.028,1.672c-2.945,0-4.979-2.071-4.979-5.054s2.052-5.054,4.959-5.054
		C73.795,20.424,75.392,22.666,75.24,26.068z M73.909,24.851c-0.095-1.919-1.387-3.135-3.344-3.135c-1.9,0-3.269,1.235-3.496,3.135
		H73.909z"/>
</g>
<g>
	<path fill="#FDFFFF" d="M82.527,17.194c4.18,0,7.069,2.698,7.069,6.65c0,3.933-2.927,6.65-7.202,6.65h-5.587V17.194H82.527z
		 M80.19,27.796h2.414c2.071,0,3.553-1.596,3.553-3.933c0-2.356-1.558-3.971-3.705-3.971H80.19V27.796L80.19,27.796z"/>
	<path fill="#FDFFFF" d="M101.699,25.365c0,3.154-2.242,5.244-5.586,5.244c-3.363,0-5.605-2.09-5.605-5.244
		c0-3.154,2.242-5.226,5.605-5.226C99.457,20.139,101.699,22.211,101.699,25.365z M93.813,25.403c0,1.596,0.931,2.66,2.299,2.66
		c1.349,0,2.28-1.064,2.28-2.66c0-1.577-0.931-2.66-2.28-2.66C94.745,22.742,93.813,23.825,93.813,25.403z"/>
	<path fill="#FDFFFF" d="M113.251,29.564c0,2.907-2.242,4.75-5.548,4.75c-1.786,0-3.401-0.57-4.561-1.349l1.14-2.223
		c0.931,0.646,2.071,1.026,3.174,1.026c1.577,0,2.527-0.835,2.527-2.109v-1.083c-0.666,0.874-1.672,1.368-2.945,1.368
		c-2.585,0-4.409-1.977-4.409-4.959c0-2.907,1.767-4.845,4.333-4.845c1.311-0.019,2.337,0.475,3.021,1.368v-1.254h3.268V29.564z
		 M109.983,25.079c0-1.501-0.855-2.508-2.128-2.508c-1.292,0-2.167,1.026-2.167,2.508c0,1.463,0.874,2.489,2.167,2.489
		C109.128,27.568,109.983,26.543,109.983,25.079z"/>
	<path fill="#FDFFFF" d="M127.255,30.495l-2.47-9.197l-2.508,9.197h-3.497l-4.351-13.301h3.61l2.604,9.785l2.546-9.785h3.306
		l2.604,9.785l2.565-9.785h3.458l-4.39,13.301H127.255z"/>
	<path fill="#FDFFFF" d="M144.641,23.806v6.688h-3.211v-1.178c-0.665,0.874-1.749,1.33-3.135,1.33c-2.186,0-3.515-1.33-3.515-3.211
		c0-1.938,1.387-3.079,3.933-3.097h2.698v-0.152c0-1.007-0.665-1.615-1.995-1.615c-0.855,0-1.976,0.304-3.059,0.855l-0.931-2.166
		c1.596-0.741,3.04-1.159,4.75-1.159C142.988,20.101,144.622,21.489,144.641,23.806z M141.411,27.018v-0.913h-2.071
		c-0.988,0-1.482,0.342-1.482,1.102c0,0.741,0.532,1.216,1.444,1.216C140.328,28.424,141.202,27.854,141.411,27.018z"/>
	<path fill="#FDFFFF" d="M147.073,30.495V16.396h3.287v14.099H147.073z"/>
	<path fill="#FDFFFF" d="M156.46,27.701v2.793h-3.287V16.396h3.287v7.448l3.382-3.591h3.724l-3.763,3.933l3.876,6.309h-3.895
		l-2.223-3.952L156.46,27.701z"/>
	<path fill="#FDFFFF" d="M174.168,26.257h-7.201c0.323,1.216,1.197,1.9,2.413,1.9c0.893,0,1.767-0.361,2.451-1.045l1.729,1.691
		c-1.044,1.14-2.584,1.805-4.465,1.805c-3.344,0-5.434-2.09-5.434-5.206c0-3.173,2.166-5.263,5.339-5.263
		C172.61,20.139,174.397,22.514,174.168,26.257z M171.014,24.49c0-1.254-0.798-2.071-1.976-2.071c-1.141,0-1.919,0.835-2.128,2.071
		H171.014z"/>
	<path fill="#FDFFFF" d="M179.242,21.982c0.703-1.197,1.862-1.862,3.325-1.881v2.964c-1.9-0.171-3.154,0.722-3.325,2.167v5.263
		h-3.287V20.253h3.287V21.982z"/>
</g>
<path display="none" fill="none" d="M371.467,116.72C340.35,85.304,299.342,68.002,256,68c-43.342,0-84.348,17.302-115.468,48.72
	c-30.833,31.126-47.813,71.746-47.813,114.377c-0.195,16.962-0.651,56.537,17.559,103.669l32.441,59.908l1.802,28.761
	c1.296,16.09,8.547,31.033,20.413,42.038c11.866,11.004,27.313,17.109,43.497,17.191l0.321,0.001
	c16.902-0.001,32.666-1.604,44.389-13.591L256,466.15l2.859,2.925c11.724,11.987,27.485,13.592,44.385,13.592
	c0.002,0,0.002,0,0.004,0l0.311-0.001c16.193-0.082,31.642-6.188,43.508-17.191c11.865-11.006,19.117-25.949,20.416-42.081
	l1.799-28.718l32.36-59.703c18.291-47.206,17.834-86.886,17.64-103.83C419.28,188.467,402.3,147.847,371.467,116.72z"/>
<g>
	<path fill="#FDFFFF" d="M35.888,17.444c1.671-4.68,5.004-14.96,2.75-16.827c-1.749-1.448-8.094,1.211-12.944,3.6
		c2.063,0.813,3.961,2.062,5.585,3.701C33.89,10.553,35.491,13.885,35.888,17.444z"/>
</g>
<path fill="#FDFFFF" d="M14.213,4.173C9.326,1.744,2.73-1.07,0.942,0.411c-2.34,1.938,1.34,12.943,2.933,17.336
	c0.337-3.671,1.955-7.119,4.641-9.83C10.169,6.248,12.108,4.984,14.213,4.173z"/>
<path fill="#FDFFFF" d="M34.885,19.196c0-3.917-1.559-7.646-4.389-10.503C27.64,5.809,23.875,4.22,19.897,4.22
	c-3.979,0-7.743,1.588-10.599,4.472c-2.83,2.857-4.389,6.586-4.389,10.499c-0.018,1.557-0.06,5.19,1.612,9.516l2.978,5.5l0.166,2.64
	c0.119,1.477,0.784,2.849,1.873,3.858c1.089,1.01,2.507,1.571,3.993,1.578h0.03c1.551,0,2.999-0.147,4.074-1.248l0.263-0.269
	l0.263,0.269c1.076,1.101,2.523,1.248,4.074,1.248h0.028c1.487-0.007,2.905-0.568,3.994-1.578s1.754-2.382,1.874-3.863l0.165-2.635
	l2.971-5.481C34.945,24.393,34.903,20.751,34.885,19.196z M12.536,25.607c-1.543,0-2.794-1.465-2.794-3.273s1.251-3.273,2.794-3.273
	c1.543,0,2.794,1.466,2.794,3.273S14.08,25.607,12.536,25.607z M21.869,37.835l-1.974,0.752l-1.975-0.752
	c-0.726-0.436-1.169-1.22-1.169-2.066c0-1.33,1.079-2.409,2.409-2.409h0.735h0.735c1.331,0,2.409,1.079,2.409,2.409
	C23.038,36.615,22.594,37.399,21.869,37.835z M27.258,25.607c-1.543,0-2.794-1.465-2.794-3.273s1.251-3.273,2.794-3.273
	c1.543,0,2.794,1.466,2.794,3.273C30.052,24.142,28.801,25.607,27.258,25.607z"/>
</svg>
