<?xml version="1.0" encoding="utf-8"?>
<!-- Generator: Adobe Illustrator 16.0.0, SVG Export Plug-In . SVG Version: 6.00 Build 0)  -->
<!DOCTYPE svg PUBLIC "-//W3C//DTD SVG 1.1//EN" "http://www.w3.org/Graphics/SVG/1.1/DTD/svg11.dtd">
<svg version="1.1" id="Capa_1" xmlns="http://www.w3.org/2000/svg" xmlns:xlink="http://www.w3.org/1999/xlink" x="0px" y="0px"
	 width="79.054px" height="77.97px" viewBox="0 0 79.054 77.97" enable-background="new 0 0 79.054 77.97" xml:space="preserve">
<path fill="none" d="M38.668,37.029c-8.864,0-16.047,6.641-16.047,14.793v19.835c0,0.717,0.629,1.295,1.408,1.295h29.295
	c0.78,0,1.408-0.579,1.408-1.295h-0.009V51.822c0-8.152-7.183-14.793-16.047-14.793H38.668z"/>
<path fill="#DDC7CB" d="M76.508,37.314L41.119,1.658c-1.305-1.313-3.55-1.313-4.854,0L0.866,37.323
	c-1.925,1.943-0.432,5.068,2.422,5.068H8.15l30.541-28.716l30.386,28.707h5.008C76.94,42.383,78.442,39.257,76.508,37.314z"/>
<path fill="#92A2AD" d="M9.724,43.657l2.663,31.524c0.131,1.572,1.559,2.789,3.277,2.789h45.999c1.719,0,3.155-1.226,3.277-2.807
	l2.505-31.571L38.688,16.424L9.724,43.657z M54.725,51.822v19.835h0.009c0,0.717-0.628,1.295-1.408,1.295H24.03
	c-0.779,0-1.408-0.579-1.408-1.295V51.822c0-8.152,7.183-14.793,16.047-14.793h0.009C47.542,37.029,54.725,43.67,54.725,51.822z"/>
<path fill="#92A2AD" d="M52.636,45.634c0,0-5.034-0.277-8.747,2.462c-1.561-0.894-3.331-1.408-5.212-1.421
	c-1.881,0.014-3.651,0.527-5.211,1.421c-3.713-2.739-8.747-2.462-8.747-2.462c-0.732,6.627,1.248,10.112,2.734,11.752
	c-0.079,0.593-0.133,1.195-0.133,1.811c0,6.89,5.078,12.477,11.357,12.523c6.279-0.046,11.357-5.633,11.357-12.523
	c0-0.616-0.054-1.218-0.133-1.811C51.388,55.746,53.368,52.261,52.636,45.634z M34.788,59.613c-0.144-0.031-0.296-0.066-0.449-0.119
	c-0.153-0.053-0.331-0.035-0.495-0.075c-0.34-0.025-0.681-0.187-1.021-0.145l-0.507-0.047c-0.163,0.013-0.325,0.025-0.481,0.038
	c-0.161,0.007-0.32,0.009-0.46,0.058c-0.151,0.031-0.295,0.06-0.429,0.087c-0.249,0.097-0.513,0.141-0.658,0.23
	c-0.168,0.066-0.27,0.122-0.27,0.122c0.007,0.002,0.01-0.112,0.099-0.28c0.085-0.176,0.234-0.412,0.47-0.66
	c0.256-0.198,0.579-0.492,0.999-0.586c0.207-0.055,0.422-0.147,0.647-0.169l0.679,0.006c0.467-0.007,0.867,0.188,1.25,0.333
	c0.394,0.129,0.688,0.367,0.927,0.585c0.481,0.431,0.73,0.772,0.73,0.772S35.362,59.735,34.788,59.613z M38.678,68.429
	L38.678,68.429L38.678,68.429c-1.211,0-2.191-0.548-2.191-1.225s0.98-1.225,2.19-1.225h0h0c1.21,0,2.19,0.548,2.19,1.225
	S39.888,68.429,38.678,68.429z M47.067,59.641c-0.144-0.089-0.408-0.133-0.658-0.23c-0.133-0.028-0.276-0.057-0.429-0.087
	c-0.14-0.048-0.298-0.051-0.459-0.058c-0.156-0.013-0.318-0.025-0.481-0.038l-0.507,0.047c-0.341-0.042-0.682,0.119-1.022,0.145
	c-0.164,0.041-0.342,0.022-0.495,0.075c-0.153,0.053-0.306,0.088-0.449,0.119c-0.575,0.122-1.032,0.149-1.032,0.149
	s0.248-0.341,0.73-0.772c0.239-0.218,0.532-0.456,0.927-0.585c0.383-0.145,0.783-0.34,1.251-0.333l0.679-0.006
	c0.224,0.021,0.44,0.114,0.646,0.169c0.42,0.094,0.743,0.388,1,0.586c0.236,0.248,0.384,0.484,0.469,0.66
	c0.088,0.168,0.092,0.283,0.1,0.28C47.338,59.763,47.236,59.707,47.067,59.641z"/>
</svg>
