<?xml version="1.0" encoding="utf-8"?>
<!-- Generator: Adobe Illustrator 16.0.0, SVG Export Plug-In . SVG Version: 6.00 Build 0)  -->
<!DOCTYPE svg PUBLIC "-//W3C//DTD SVG 1.1//EN" "http://www.w3.org/Graphics/SVG/1.1/DTD/svg11.dtd">
<svg version="1.1" xmlns="http://www.w3.org/2000/svg" xmlns:xlink="http://www.w3.org/1999/xlink" x="0px" y="0px"
	 width="68.541px" height="61.299px" viewBox="0 0 68.541 61.299" enable-background="new 0 0 68.541 61.299" xml:space="preserve">
<g id="Layer_1" display="none">
	<g id="Layer_1_copy_2" display="inline">
		<path fill="#92A2AD" d="M66.424,15.3c-2.206-3.692-5.304-7.207-7.396-9.05c-4.601-4.056-8.45-3.95-10.333-3.526
			c-0.758,0.17-1.456,0.448-2.076,0.813C43.367,1.163,39.421,0,34.655,0c-4.765,0-8.711,1.163-11.962,3.538
			c-0.621-0.365-1.318-0.643-2.076-0.813C18.733,2.3,14.885,2.194,10.284,6.25c-2.093,1.844-5.191,5.358-7.397,9.05
			c-3.006,5.036-3.669,9.121-1.97,12.143c2.002,3.562,5.091,4.557,7.556,4.827c-0.589,2.328-0.951,4.827-0.951,7.923
			c0,4.216,0.966,7.845,2.871,10.786c1.675,2.586,4.085,4.656,7.162,6.152c4.801,2.334,11.421,2.919,15.841,3.043V46.081
			c-2.737-1.291-5.403-4.522-5.403-7.097c0-4.337,3.797-3.337,6.663-3.337s6.663-1,6.663,3.337c0,2.576-2.667,5.807-5.403,7.097
			v14.093c4.419-0.124,11.041-0.709,15.841-3.043c3.077-1.496,5.487-3.566,7.162-6.152c1.905-2.941,2.872-6.57,2.872-10.786
			c0-3.096-0.361-5.595-0.951-7.923c2.465-0.27,5.553-1.264,7.556-4.826C70.093,24.421,69.431,20.335,66.424,15.3z M24.664,28.08
			c-2.06,0-3.73-1.67-3.73-3.729c0-2.06,1.67-3.73,3.73-3.73c2.06,0,3.729,1.67,3.729,3.73C28.393,26.41,26.723,28.08,24.664,28.08z
			 M44.623,28.08c-2.06,0-3.729-1.67-3.729-3.729c0-2.06,1.67-3.73,3.729-3.73c2.061,0,3.73,1.67,3.73,3.73
			C48.353,26.41,46.683,28.08,44.623,28.08z"/>
	</g>
</g>
<g id="Layer_1_copy" display="none">
	<circle display="inline" fill="none" cx="24.664" cy="24.35" r="3.73"/>
	<circle display="inline" fill="none" cx="44.623" cy="24.35" r="3.73"/>
	<path display="inline" fill="#92A2AD" d="M21.012,2.468C16.846,0.122,6.046-3.985,1.75,13.299
		c-3.676,14.79-0.044,21.209,3.979,22.995C7.106,29.533,11.645,10.831,21.012,2.468z"/>
	<path display="inline" fill="#92A2AD" d="M66.424,15.3c-2.206-3.692-5.304-7.207-7.396-9.05c-4.601-4.056-8.45-3.95-10.333-3.526
		c-0.758,0.17-1.456,0.448-2.076,0.813C43.367,1.163,39.421,0,34.655,0c-4.37,0-8.043,0.991-11.13,2.984
		c-0.496,0.373-0.977,0.786-1.447,1.222c-7.927,7.338-12.285,23.122-13.987,30.68c-0.163,0.725-0.302,1.371-0.417,1.929
		c0.007,0.001,0.014,0.002,0.021,0.003c-0.104,1.057-0.173,2.16-0.173,3.375c0,4.216,0.966,7.845,2.871,10.786
		c1.675,2.586,4.085,4.656,7.162,6.152c4.801,2.334,11.421,2.919,15.841,3.043V49.081c-2.737-1.291-5.403-4.522-5.403-7.097
		c0-4.337,3.797-3.337,6.663-3.337s6.663-1,6.663,3.337c0,2.576-2.667,5.807-5.403,7.097v11.093
		c4.419-0.124,11.041-0.709,15.841-3.043c3.077-1.496,5.487-3.566,7.162-6.152c1.905-2.941,2.872-6.57,2.872-10.786
		c0-3.096-0.361-5.595-0.951-7.923c2.465-0.27,5.553-1.264,7.556-4.826C70.093,24.421,69.431,20.335,66.424,15.3z M24.664,28.08
		c-2.06,0-3.73-1.67-3.73-3.729c0-2.06,1.67-3.73,3.73-3.73c2.06,0,3.729,1.67,3.729,3.73C28.393,26.41,26.723,28.08,24.664,28.08z
		 M44.623,28.08c-2.06,0-3.729-1.67-3.729-3.729c0-2.06,1.67-3.73,3.729-3.73c2.061,0,3.73,1.67,3.73,3.73
		C48.353,26.41,46.683,28.08,44.623,28.08z"/>
	<rect x="-7.333" y="-14.035" display="inline" fill="#92A2AD" width="41.989" height="79.333"/>
</g>
<g id="Layer_1_copy_2_1_">
	<circle fill="none" cx="44.623" cy="21.85" r="3.73"/>
	<circle fill="none" cx="44.623" cy="21.85" r="3.73"/>
	<path fill="#92A2AD" d="M21.012,2.468C16.846,0.122,6.046-3.985,1.75,13.299c-3.676,14.79-0.044,21.209,3.979,22.995
		C7.106,29.533,11.645,10.831,21.012,2.468z"/>
	<path fill="#92A2AD" d="M34.655,0c-4.37,0-8.043,0.991-11.13,2.984c-0.496,0.373-0.977,0.786-1.447,1.222
		c-7.927,7.338-12.285,23.122-13.987,30.68c-0.163,0.725-0.302,1.371-0.417,1.929c0.007,0.001,0.014,0.002,0.021,0.003
		c-0.104,1.057-0.173,2.16-0.173,3.375c0,4.216,0.966,7.845,2.871,10.786c1.675,2.586,4.085,4.656,7.162,6.152
		c4.801,2.334,11.421,2.919,15.841,3.043V49.081c-2.737-1.291-5.403-4.522-5.403-7.097c0-4.337,3.797-3.337,6.663-3.337h0L34.655,0
		C34.656,0,34.656,0,34.655,0z M24.664,28.08c-2.06,0-3.73-1.67-3.73-3.729c0-2.06,1.67-3.73,3.73-3.73
		c2.06,0,3.729,1.67,3.729,3.73C28.393,26.41,26.723,28.08,24.664,28.08z"/>
	<path fill="#92A2AD" d="M47.3,2.468c4.166-2.346,14.966-6.453,19.262,10.831c3.676,14.79,0.044,21.209-3.979,22.995
		C61.206,29.533,56.667,10.831,47.3,2.468z"/>
	<path fill="#92A2AD" d="M33.656,0v38.646h0c2.866,0,6.663-1,6.663,3.337c0,2.575-2.666,5.807-5.403,7.097v11.093
		c4.42-0.124,11.041-0.709,15.841-3.043c3.077-1.497,5.487-3.566,7.162-6.152c1.905-2.941,2.871-6.57,2.871-10.786
		c0-1.215-0.07-2.318-0.173-3.375c0.007,0,0.014-0.002,0.021-0.003c-0.115-0.558-0.254-1.204-0.417-1.929
		c-1.702-7.559-6.06-23.342-13.987-30.68c-0.471-0.436-0.951-0.849-1.447-1.222C41.7,0.991,38.027,0,33.656,0
		C33.657,0,33.657,0,33.656,0z M39.919,24.351c0-2.06,1.67-3.73,3.729-3.73c2.06,0,3.73,1.67,3.73,3.73
		c0,2.06-1.67,3.729-3.73,3.729C41.589,28.08,39.919,26.41,39.919,24.351z"/>
	<g>
		<g>
			<path fill="#DDC7CB" d="M61.655,42.481l-0.001,0.003c-1.831,0.57-2.991,2.368-2.756,4.271l-9.569,2.982
				c-1.036-1.937-3.447-2.665-5.383-1.628c-1.937,1.037-2.666,3.447-1.628,5.384c0.389,0.727,0.995,1.315,1.734,1.683
				c-0.529,0.945-0.644,2.067-0.319,3.1c0.611,2.109,2.816,3.326,4.926,2.715c1.904-0.551,3.111-2.418,2.832-4.38l9.566-2.979
				c1.037,1.936,3.447,2.665,5.383,1.628c1.937-1.037,2.666-3.447,1.628-5.384c-0.39-0.727-0.996-1.315-1.734-1.682
				c1.06-1.924,0.36-4.343-1.563-5.403C63.818,42.267,62.692,42.154,61.655,42.481z"/>
		</g>
	</g>
</g>
</svg>
